<svg aria-hidden="true" style="position: absolute; width: 0; height: 0; overflow: hidden;" version="1.1" xmlns="http://www.w3.org/2000/svg" xmlns:xlink="http://www.w3.org/1999/xlink">
  <defs>
    <symbol id="icon-burger-btn" viewBox="0 0 32 32">
      <path d="M4.8 5.818c0-0.27 0.105-0.529 0.293-0.72s0.442-0.298 0.707-0.298h22c0.265 0 0.52 0.107 0.707 0.298s0.293 0.45 0.293 0.72-0.105 0.529-0.293 0.72c-0.188 0.191-0.442 0.298-0.707 0.298h-22c-0.265 0-0.52-0.107-0.707-0.298s-0.293-0.45-0.293-0.72zM4.8 16c0-0.27 0.105-0.529 0.293-0.72s0.442-0.298 0.707-0.298h22c0.265 0 0.52 0.107 0.707 0.298s0.293 0.45 0.293 0.72c0 0.27-0.105 0.529-0.293 0.72s-0.442 0.298-0.707 0.298h-22c-0.265 0-0.52-0.107-0.707-0.298s-0.293-0.45-0.293-0.72zM5.8 25.164c-0.265 0-0.52 0.107-0.707 0.298s-0.293 0.45-0.293 0.72c0 0.27 0.105 0.529 0.293 0.72s0.442 0.298 0.707 0.298h22c0.265 0 0.52-0.107 0.707-0.298s0.293-0.45 0.293-0.72c0-0.27-0.105-0.529-0.293-0.72s-0.442-0.298-0.707-0.298h-22z"></path>
    </symbol>
    <symbol id="icon-close" viewBox="0 0 32 32">
      <path stroke-linejoin="miter" stroke-linecap="round" stroke-miterlimit="4" stroke-width="4.2667" d="M29.867 29.867l-27.733-27.733M29.867 2.133l-27.733 27.733"></path>
    </symbol>
    <symbol id="icon-back-link" viewBox="0 0 32 32">
      <path d="M17.624 4.192c0.12-0.124 0.214-0.27 0.276-0.429s0.092-0.329 0.087-0.5c-0.005-0.171-0.044-0.339-0.116-0.494s-0.174-0.296-0.301-0.413c-0.127-0.117-0.277-0.209-0.44-0.27s-0.338-0.090-0.513-0.085c-0.175 0.005-0.347 0.043-0.507 0.113s-0.304 0.169-0.424 0.294l-11.323 11.693c-0.234 0.241-0.364 0.561-0.364 0.893s0.13 0.651 0.364 0.893l11.323 11.695c0.119 0.127 0.263 0.229 0.424 0.301s0.334 0.112 0.51 0.118c0.176 0.006 0.352-0.022 0.517-0.083s0.316-0.153 0.445-0.271c0.128-0.118 0.231-0.26 0.303-0.417s0.11-0.327 0.114-0.499c0.004-0.172-0.027-0.343-0.092-0.503s-0.161-0.306-0.284-0.43l-10.46-10.803 10.46-10.801z"></path>
    </symbol>
  </defs>
</svg>