<svg aria-hidden="true" style="position: absolute; width: 0; height: 0; overflow: hidden;" version="1.1" xmlns="http://www.w3.org/2000/svg" xmlns:xlink="http://www.w3.org/1999/xlink">
<defs>
<symbol id="icon-burger-btn" viewBox="0 0 32 32">
<path d="M4.8 5.818c0-0.27 0.105-0.529 0.293-0.72s0.442-0.298 0.707-0.298h22c0.265 0 0.52 0.107 0.707 0.298s0.293 0.45 0.293 0.72-0.105 0.529-0.293 0.72c-0.188 0.191-0.442 0.298-0.707 0.298h-22c-0.265 0-0.52-0.107-0.707-0.298s-0.293-0.45-0.293-0.72zM4.8 16c0-0.27 0.105-0.529 0.293-0.72s0.442-0.298 0.707-0.298h22c0.265 0 0.52 0.107 0.707 0.298s0.293 0.45 0.293 0.72c0 0.27-0.105 0.529-0.293 0.72s-0.442 0.298-0.707 0.298h-22c-0.265 0-0.52-0.107-0.707-0.298s-0.293-0.45-0.293-0.72zM5.8 25.164c-0.265 0-0.52 0.107-0.707 0.298s-0.293 0.45-0.293 0.72c0 0.27 0.105 0.529 0.293 0.72s0.442 0.298 0.707 0.298h22c0.265 0 0.52-0.107 0.707-0.298s0.293-0.45 0.293-0.72c0-0.27-0.105-0.529-0.293-0.72s-0.442-0.298-0.707-0.298h-22z"></path>
</symbol>
<symbol id="icon-close" viewBox="0 0 32 32">
<path stroke-linejoin="miter" stroke-linecap="round" stroke-miterlimit="4" stroke-width="4.2667" d="M29.867 29.867l-27.733-27.733M29.867 2.133l-27.733 27.733"></path>
</symbol>
</defs>
</svg>
