<svg aria-hidden="true" style="position: absolute; width: 0; height: 0; overflow: hidden;" version="1.1" xmlns="http://www.w3.org/2000/svg" xmlns:xlink="http://www.w3.org/1999/xlink">
  <defs>
    <symbol id="icon-burger-btn" viewBox="0 0 32 32">
      <path d="M4.8 5.818c0-0.27 0.105-0.529 0.293-0.72s0.442-0.298 0.707-0.298h22c0.265 0 0.52 0.107 0.707 0.298s0.293 0.45 0.293 0.72-0.105 0.529-0.293 0.72c-0.188 0.191-0.442 0.298-0.707 0.298h-22c-0.265 0-0.52-0.107-0.707-0.298s-0.293-0.45-0.293-0.72zM4.8 16c0-0.27 0.105-0.529 0.293-0.72s0.442-0.298 0.707-0.298h22c0.265 0 0.52 0.107 0.707 0.298s0.293 0.45 0.293 0.72c0 0.27-0.105 0.529-0.293 0.72s-0.442 0.298-0.707 0.298h-22c-0.265 0-0.52-0.107-0.707-0.298s-0.293-0.45-0.293-0.72zM5.8 25.164c-0.265 0-0.52 0.107-0.707 0.298s-0.293 0.45-0.293 0.72c0 0.27 0.105 0.529 0.293 0.72s0.442 0.298 0.707 0.298h22c0.265 0 0.52-0.107 0.707-0.298s0.293-0.45 0.293-0.72c0-0.27-0.105-0.529-0.293-0.72s-0.442-0.298-0.707-0.298h-22z"></path>
    </symbol>
    <symbol id="icon-close" viewBox="0 0 32 32">
      <path stroke-linejoin="miter" stroke-linecap="round" stroke-miterlimit="4" stroke-width="4.2667" d="M29.867 29.867l-27.733-27.733M29.867 2.133l-27.733 27.733"></path>
    </symbol>
    <symbol id="icon-back-link" viewBox="0 0 32 32">
      <path d="M17.624 4.192c0.12-0.124 0.214-0.27 0.276-0.429s0.092-0.329 0.087-0.5c-0.005-0.171-0.044-0.339-0.116-0.494s-0.174-0.296-0.301-0.413c-0.127-0.117-0.277-0.209-0.44-0.27s-0.338-0.090-0.513-0.085c-0.175 0.005-0.347 0.043-0.507 0.113s-0.304 0.169-0.424 0.294l-11.323 11.693c-0.234 0.241-0.364 0.561-0.364 0.893s0.13 0.651 0.364 0.893l11.323 11.695c0.119 0.127 0.263 0.229 0.424 0.301s0.334 0.112 0.51 0.118c0.176 0.006 0.352-0.022 0.517-0.083s0.316-0.153 0.445-0.271c0.128-0.118 0.231-0.26 0.303-0.417s0.11-0.327 0.114-0.499c0.004-0.172-0.027-0.343-0.092-0.503s-0.161-0.306-0.284-0.43l-10.46-10.803 10.46-10.801z"></path>
    </symbol>
  <symbol id="icon-feature-1" viewBox="0 0 32 32">
<path d="M16 0.364c-2.659 0-4.857 0.234-6.548 0.519l-0.195 0.033c-1.469 0.246-2.691 0.451-3.647 1.626-0.611 0.755-0.81 1.571-0.855 2.48l-0.716 0.239c-0.673 0.224-1.265 0.422-1.732 0.64-0.506 0.236-0.97 0.538-1.325 1.031s-0.496 1.028-0.56 1.583c-0.058 0.513-0.058 1.135-0.058 1.846v0.211c0 0.585 0 1.101 0.044 1.533 0.047 0.467 0.15 0.922 0.407 1.361 0.26 0.441 0.607 0.752 0.993 1.020 0.356 0.247 0.807 0.499 1.319 0.783l3.84 2.134c0.785 1.543 1.863 2.919 3.345 3.913 1.29 0.867 2.839 1.411 4.673 1.555-0.049 0.129-0.075 0.265-0.077 0.403v2.545h-2.080c-0.588 0-1.159 0.204-1.614 0.577s-0.767 0.892-0.882 1.469l-0.319 1.59h-2.742c-0.289 0-0.567 0.115-0.771 0.32s-0.32 0.482-0.32 0.771c0 0.289 0.115 0.567 0.32 0.771s0.482 0.319 0.771 0.319h17.455c0.289 0 0.567-0.115 0.771-0.319s0.32-0.482 0.32-0.771c0-0.289-0.115-0.567-0.32-0.771s-0.482-0.32-0.771-0.32h-2.742l-0.319-1.59c-0.115-0.577-0.427-1.096-0.882-1.469s-1.025-0.577-1.614-0.577h-2.080v-2.545c-0.002-0.138-0.028-0.274-0.077-0.403 1.834-0.145 3.383-0.688 4.673-1.553 1.484-0.995 2.56-2.371 3.345-3.914l3.84-2.134c0.512-0.284 0.963-0.535 1.319-0.783 0.385-0.268 0.733-0.579 0.992-1.018 0.259-0.441 0.364-0.896 0.409-1.363 0.044-0.432 0.044-0.948 0.044-1.533v-0.211c0-0.71 0-1.332-0.058-1.846-0.064-0.554-0.204-1.091-0.56-1.583-0.355-0.493-0.819-0.796-1.324-1.033-0.47-0.218-1.060-0.415-1.734-0.639l-0.716-0.239c-0.044-0.911-0.243-1.725-0.855-2.48-0.954-1.177-2.176-1.382-3.645-1.626l-0.196-0.033c-2.165-0.356-4.355-0.529-6.548-0.519zM19.76 29.455h-7.52l0.233-1.162c0.016-0.082 0.061-0.157 0.126-0.21s0.146-0.082 0.23-0.083h6.342c0.084 0 0.166 0.029 0.23 0.083s0.11 0.127 0.126 0.21l0.233 1.162zM4.783 7.314l0.020-0.007c0.105 2.211 0.353 4.655 0.976 6.938l-1.551-0.86c-0.566-0.316-0.921-0.513-1.177-0.691-0.236-0.164-0.313-0.262-0.355-0.335-0.044-0.073-0.090-0.186-0.119-0.471-0.030-0.454-0.041-0.909-0.032-1.364v-0.106c0-0.784 0.001-1.28 0.044-1.655 0.041-0.346 0.105-0.476 0.163-0.554 0.057-0.080 0.159-0.182 0.474-0.329 0.343-0.16 0.815-0.317 1.556-0.566zM27.197 7.305l0.020 0.006c0.742 0.249 1.213 0.407 1.556 0.567 0.316 0.147 0.417 0.249 0.474 0.329 0.058 0.079 0.122 0.208 0.163 0.554 0.042 0.375 0.044 0.871 0.044 1.655v0.106c0 0.647-0.001 1.053-0.032 1.364-0.029 0.285-0.076 0.399-0.119 0.471-0.042 0.073-0.119 0.17-0.355 0.335-0.256 0.177-0.611 0.375-1.177 0.691l-1.549 0.86c0.621-2.284 0.871-4.727 0.975-6.938zM9.815 3.034c2.044-0.335 4.113-0.498 6.185-0.489 2.531 0 4.607 0.223 6.185 0.489 1.756 0.297 2.124 0.407 2.512 0.884 0.381 0.468 0.417 0.913 0.339 2.884-0.131 3.284-0.564 6.831-1.905 9.527-0.663 1.329-1.53 2.417-2.657 3.174-1.121 0.752-2.569 1.223-4.473 1.223s-3.35-0.471-4.471-1.223c-1.129-0.756-1.996-1.844-2.657-3.175-1.343-2.695-1.775-6.24-1.905-9.527-0.079-1.969-0.044-2.415 0.339-2.883 0.387-0.477 0.755-0.588 2.511-0.884z"></path>
</symbol>
  <symbol id="icon-feature-2" viewBox="0 0 32 32">
  <path d="M3.913 0c-1.381-0.006-2.712 0.261-3.913 0.849 7.125 2.059 13.031 5.786 18.177 10.55-0.676-3.113-2.737-5.95-5.376-8.015-0.755 0.568-1.878 0.579-2.787 0.051-0.908-0.527-1.458-1.507-1.348-2.446-1.571-0.629-3.193-0.983-4.752-0.989h0zM10.796 0.451c-0.353 0.011-0.645 0.168-0.781 0.406-0.233 0.406-0.037 1.087 0.633 1.476s1.354 0.219 1.588-0.187c0.233-0.406 0.039-1.089-0.631-1.478-0.251-0.146-0.506-0.212-0.737-0.217-0.024-0.001-0.048-0.001-0.072 0h-0zM7.867 5.481l-7.126 12.409c0.404 0.575 0.887 0.973 1.702 1.025l7.143-12.439c-0.544-0.361-1.118-0.693-1.719-0.995zM21.059 5.906l-1.179 0.734-0.692 4.536 2.595-4.024-0.724-1.246zM11.554 10.106l-1.479 0.916 0.974 1.178 5.835-0.323-5.329-1.772zM25.76 10.153l-0.256 0.079-12.519 3.885-0.123 0.238-3.111 6.125 0.438 0.319 15.351 11.201 0.281-0.804 6.178-17.622-0.474-0.259-5.766-3.162zM25.623 11.527l4.286 2.352-4.468 1.384-2.252-2.982 2.434-0.755zM21.9 12.681l2.254 2.982-6.667 2.067 0.188-3.739 4.225-1.31zM16.388 14.391l-0.188 3.739-4.553 1.412 2.22-4.368 2.521-0.783zM30.104 15.148l-4.421 12.617 0.275-11.331 4.146-1.287zM24.681 16.831l-0.275 11.331-6.692-9.168 6.968-2.163zM16.433 19.389l6.862 9.402-11.087-8.090 4.225-1.312z"></path>
  </symbol>
  <symbol id="icon-feature-3" viewBox="0 0 32 32">
  <path d="M19.143 0l-10.994 6.266 6.347 10.854 10.994-6.266-0.648-1.108-0.28-0.505-0.013 0.005-5.407-9.245zM17.743 2.244l-3.412 6.040c-1.302-0.515-2.572-1.158-3.812-1.923l7.225-4.118zM19.095 2.422l4.292 7.34c-2.754 0.141-5.362-0.22-7.851-1.041l3.558-6.299zM2.016 4.143l-1.891 5.818 5.044 3.426 1.891-5.818-5.044-3.426zM2.703 6.13l2.192 1.489-3.002 1.004 0.81-2.494zM28.893 7.626l-3.132 1.167 0.615 1.11 1.369-0.51 0.203 2.913-2.711 1.010-0.060-0.854-1.223 0.697 0.134 1.924 5.19-1.934-0.385-5.522zM10.528 7.83c2.165 1.248 4.434 2.152 6.806 2.678l-2.683 4.373-4.123-7.051zM5.328 8.796l-0.846 2.604-2.29-1.555 3.136-1.049zM18.662 10.761c1.292 0.206 2.613 0.3 3.964 0.279l-6.359 3.624 2.394-3.903zM0 13.765l1.604 11.584 11.337 3.316-0.135-0.978-1.597-0.835-7.218-2.111 4.043-1.749 2.335-3.654 0.471 3.402 1.092-1.362-0.595-4.296-11.337-3.316zM1.523 15.516l8.247 2.412-2.601 4.070-4.48 1.938-1.166-8.42zM22.773 15.865l-6.035 1.597-6.189 7.639 13.397 6.9 8.055-12.575-9.227-3.559zM21.85 17.406l2.125 3.707-5.844 1.519 0.17-4.287 3.549-0.939zM23.315 17.419l5.986 2.309-4.058 1.055-1.928-3.364zM17 19.143l-0.151 3.822-3.732 0.97 3.883-4.793zM29.511 20.968l-4.992 7.794 0.946-6.742 4.046-1.052zM24.136 22.366l-0.95 6.769-4.571-5.334 5.521-1.435zM17.256 24.155l4.584 5.349-8.439-4.346 3.855-1.002z"></path>
  </symbol>
  <symbol id="icon-feature-4" viewBox="0 0 32 32">
  <path d="M26.96 21.898c-0.3-0.298-0.705-0.465-1.128-0.465s-0.828 0.167-1.128 0.465l-3.296 3.295c-0.197 0.199-0.339 0.446-0.411 0.717s-0.071 0.556 0.002 0.826c0.073 0.27 0.216 0.517 0.414 0.715s0.445 0.341 0.715 0.413l0.416 0.112-1.28 1.279c-0.15 0.149-0.269 0.326-0.35 0.521s-0.123 0.404-0.123 0.615c0 0.211 0.042 0.42 0.123 0.615s0.2 0.372 0.35 0.521c0.149 0.15 0.326 0.269 0.521 0.35s0.404 0.123 0.615 0.123 0.42-0.042 0.615-0.123c0.195-0.081 0.372-0.2 0.521-0.35l3.2-3.199c0.209-0.203 0.357-0.46 0.431-0.742s0.068-0.578-0.015-0.858c-0.072-0.273-0.215-0.521-0.415-0.721s-0.448-0.343-0.721-0.415l-0.416-0.096 1.328-1.344c0.302-0.295 0.475-0.698 0.481-1.121s-0.155-0.83-0.449-1.134zM9.456 27.976l0.416-0.112c0.271-0.073 0.517-0.215 0.715-0.413s0.341-0.445 0.414-0.715 0.073-0.555 0.002-0.826c-0.072-0.271-0.213-0.518-0.411-0.717l-3.296-3.295c-0.306-0.262-0.7-0.399-1.102-0.383s-0.785 0.182-1.070 0.467c-0.285 0.285-0.452 0.667-0.467 1.069s0.121 0.796 0.384 1.102l1.328 1.344-0.416 0.096c-0.273 0.072-0.521 0.216-0.721 0.415s-0.343 0.448-0.415 0.721c-0.083 0.279-0.088 0.576-0.015 0.858s0.222 0.538 0.431 0.742l3.2 3.199c0.149 0.15 0.326 0.269 0.521 0.35s0.404 0.123 0.615 0.123 0.42-0.042 0.615-0.123c0.195-0.081 0.372-0.2 0.521-0.35 0.15-0.149 0.269-0.326 0.35-0.521s0.123-0.404 0.123-0.615c0-0.211-0.042-0.42-0.123-0.615s-0.2-0.372-0.35-0.521l-1.248-1.279zM30.4 3.199c-0.424 0-0.831 0.169-1.131 0.469s-0.469 0.707-0.469 1.131h-4.8c0-1.273-0.506-2.493-1.406-3.393s-2.121-1.405-3.394-1.405h-6.4c-1.273 0-2.494 0.506-3.394 1.405s-1.406 2.12-1.406 3.393h-4.8c0-0.424-0.169-0.831-0.469-1.131s-0.707-0.469-1.131-0.469-0.831 0.169-1.131 0.469c-0.3 0.3-0.469 0.707-0.469 1.131v3.199c0 0.424 0.169 0.831 0.469 1.131s0.707 0.469 1.131 0.469c0.424 0 0.831-0.169 1.131-0.469s0.469-0.707 0.469-1.131h4.8v3.199c-0.001 0.993 0.307 1.961 0.88 2.772s1.384 1.424 2.32 1.755v1.871c0 0.848 0.337 1.662 0.937 2.262s1.414 0.937 2.263 0.937v9.597c0 0.424 0.169 0.831 0.469 1.131s0.707 0.469 1.131 0.469c0.424 0 0.831-0.169 1.131-0.469s0.469-0.707 0.469-1.131v-9.597c0.849 0 1.663-0.337 2.263-0.937s0.937-1.414 0.937-2.262v-1.871c0.936-0.331 1.747-0.944 2.32-1.755s0.881-1.779 0.88-2.772v-3.199h4.8c0 0.424 0.169 0.831 0.469 1.131s0.707 0.469 1.131 0.469 0.831-0.169 1.131-0.469c0.3-0.3 0.469-0.707 0.469-1.131v-3.199c0-0.424-0.169-0.831-0.469-1.131s-0.707-0.469-1.131-0.469zM20.8 11.197c0 0.424-0.169 0.831-0.469 1.131s-0.707 0.469-1.131 0.469c-0.424 0-0.831 0.168-1.131 0.468s-0.469 0.707-0.469 1.131v3.199h-3.2v-3.199c0-0.424-0.169-0.831-0.469-1.131s-0.707-0.468-1.131-0.468c-0.424 0-0.831-0.169-1.131-0.469s-0.469-0.707-0.469-1.131v-6.398c0-0.424 0.169-0.831 0.469-1.131s0.707-0.469 1.131-0.469h6.4c0.424 0 0.831 0.169 1.131 0.469s0.469 0.707 0.469 1.131v6.398zM16 6.398c-0.424 0-0.831 0.169-1.131 0.468s-0.469 0.707-0.469 1.131v1.6c0 0.424 0.169 0.831 0.469 1.131s0.707 0.468 1.131 0.468c0.424 0 0.831-0.168 1.131-0.468s0.469-0.707 0.469-1.131v-1.6c0-0.424-0.169-0.831-0.469-1.131s-0.707-0.468-1.131-0.468z"></path>
  </symbol>
  <symbol id="icon-feature-5" viewBox="0 0 32 32">
  <path d="M20.843 13.92l2.119 8.48-6.962-6.080-6.962 6.080 2.119-8.32-6.357-5.6 8.173-0.48 3.027-8 3.027 8 8.173 0.48-6.357 5.44zM19.027 27.2h-1.514v-4.8l-1.514-1.6-1.514 1.6v4.8h-1.514c-1.665 0-3.027 1.44-3.027 3.2v1.6h12.108v-1.6c0-0.849-0.319-1.663-0.887-2.263s-1.338-0.937-2.14-0.937z"></path>
  </symbol>
  <symbol id="icon-google-play" viewBox="0 0 25 32">
<path fill="#ea4335" style="fill: var(--color1, #ea4335)" d="M11.667 15l-11.167 14.303c0.125 0.543 0.351 1.044 0.659 1.465s0.691 0.749 1.119 0.961c0.428 0.212 0.89 0.302 1.351 0.262s0.908-0.208 1.307-0.491l12.565-8.748-5.833-7.752z"></path>
<path fill="#fbbc04" style="fill: var(--color2, #fbbc04)" d="M22.947 12.814l-5.385-3.814-6.062 6.577 6.086 7.423 5.344-3.773c0.473-0.306 0.87-0.767 1.147-1.333s0.423-1.213 0.423-1.874c0-0.661-0.146-1.309-0.423-1.874s-0.673-1.026-1.147-1.333l0.016 0z"></path>
<path fill="#4285f4" style="fill: var(--color3, #4285f4)" d="M0.603 3c-0.070 0.304-0.104 0.617-0.103 0.931v25.138c0.001 0.314 0.035 0.627 0.103 0.931l11.897-13.864-11.897-13.136z"></path>
<path fill="#34a853" style="fill: var(--color4, #34a853)" d="M11.734 16l5.766-6.85-12.53-8.64c-0.471-0.332-1.008-0.508-1.554-0.51-1.356-0.003-2.548 1.080-2.916 2.65l11.234 13.35z"></path>
</symbol>
<symbol id="icon-arrow" viewBox="0 0 22 20" xmlns="http://www.w3.org/2000/svg">
  <path d="M3.97715 10L20.8175 1.27803C20.9561 1.20774 21.0657 1.12429 21.14 1.03252C21.2142 0.940736 21.2516 0.842449 21.2499 0.743341C21.2483 0.644233 21.2077 0.546272 21.1304 0.455128C21.0532 0.363983 20.9408 0.281464 20.7999 0.212347C20.6589 0.143229 20.4922 0.0888849 20.3093 0.0524592C20.1264 0.0160334 19.931 -0.0017508 19.7344 0.000135823C19.5377 0.00202245 19.3438 0.0235424 19.1638 0.0634503C18.9838 0.103358 18.8213 0.160862 18.6856 0.232633L0.837941 9.4773C0.567802 9.61724 0.416656 9.80477 0.416656 10C0.416656 10.1952 0.567802 10.3828 0.837941 10.5227L18.6856 19.7674C18.8213 19.8391 18.9838 19.8966 19.1638 19.9366C19.3438 19.9765 19.5377 19.998 19.7344 19.9999C19.931 20.0018 20.1264 19.984 20.3093 19.9475C20.4922 19.9111 20.6589 19.8568 20.7999 19.7877C20.9408 19.7185 21.0532 19.636 21.1304 19.5449C21.2077 19.4537 21.2483 19.3558 21.2499 19.2567C21.2516 19.1576 21.2142 19.0593 21.14 18.9675C21.0657 18.8757 20.9561 18.7923 20.8175 18.722L3.97715 10Z"/>
</symbol>
<symbol id="icon-wifi" viewBox="0 0 36 32">
<path d="M14.416 27.162l3.005-2.977c0.179-0.027 0.362-0.040 0.549-0.040 0.734 0 1.451 0.223 2.054 0.639s1.062 1.005 1.317 1.687c0.255 0.682 0.292 1.426 0.108 2.13s-0.583 1.336-1.14 1.809c-0.558 0.473-1.248 0.766-1.979 0.839s-1.466-0.078-2.108-0.431c-0.642-0.354-1.159-0.894-1.482-1.547s-0.436-1.389-0.323-2.108zM21.474 20.172l1.774-1.757c0.865 0.494 1.663 1.109 2.366 1.833 0.22 0.227 0.34 0.531 0.334 0.846s-0.139 0.614-0.368 0.832c-0.229 0.218-0.536 0.337-0.854 0.331s-0.62-0.137-0.84-0.364c-0.69-0.715-1.508-1.299-2.411-1.721zM26.656 15.036l1.716-1.698c0.74 0.552 1.435 1.163 2.085 1.833 0.109 0.113 0.194 0.245 0.252 0.391s0.085 0.3 0.081 0.456c-0.003 0.156-0.038 0.31-0.101 0.452s-0.154 0.272-0.268 0.38c-0.114 0.108-0.248 0.193-0.394 0.249s-0.303 0.084-0.46 0.081c-0.157-0.003-0.312-0.037-0.457-0.1s-0.274-0.153-0.383-0.265c-0.634-0.654-1.327-1.249-2.071-1.778zM15.72 12.439c-3.213 0.484-6.177 1.997-8.439 4.309-0.222 0.222-0.524 0.348-0.84 0.351s-0.62-0.118-0.846-0.336c-0.226-0.218-0.357-0.516-0.363-0.828s0.113-0.615 0.33-0.842c1.648-1.684 3.628-3.014 5.817-3.907s4.54-1.331 6.907-1.285l-2.567 2.538zM31.71 10.031l1.702-1.686c0.657 0.548 1.285 1.13 1.884 1.747 0.207 0.229 0.316 0.529 0.304 0.836s-0.144 0.598-0.368 0.811-0.522 0.331-0.833 0.331c-0.31-0.001-0.608-0.121-0.831-0.335-0.585-0.604-1.205-1.173-1.857-1.705zM22.586 5.639c-1.516-0.327-3.064-0.491-4.616-0.489-2.892-0.003-5.754 0.571-8.418 1.686s-5.073 2.749-7.087 4.806c-0.109 0.114-0.24 0.205-0.385 0.268s-0.301 0.097-0.46 0.1-0.316-0.025-0.463-0.083c-0.147-0.058-0.282-0.144-0.395-0.253s-0.204-0.24-0.266-0.384c-0.062-0.144-0.095-0.299-0.097-0.456s0.029-0.313 0.088-0.458 0.148-0.278 0.259-0.389c2.236-2.284 4.914-4.099 7.872-5.338s6.138-1.876 9.35-1.873c2.262 0 4.477 0.311 6.591 0.907l-1.975 1.956zM17.97 28.892c0.318 0 0.623-0.125 0.847-0.348s0.351-0.525 0.351-0.839c0-0.315-0.126-0.617-0.351-0.839s-0.53-0.348-0.847-0.348-0.623 0.125-0.847 0.348c-0.225 0.223-0.351 0.525-0.351 0.839s0.126 0.617 0.351 0.839 0.53 0.348 0.847 0.348zM4.971 31.267c-0.226 0.216-0.529 0.336-0.843 0.333s-0.615-0.128-0.837-0.348c-0.222-0.22-0.348-0.518-0.351-0.829s0.118-0.611 0.336-0.835l29.424-28.84c0.225-0.223 0.53-0.348 0.848-0.348s0.623 0.125 0.848 0.348c0.225 0.223 0.351 0.525 0.351 0.84s-0.126 0.618-0.351 0.841l-29.426 28.838z"></path>
</symbol>
    </defs>
</svg>